<svg xmlns="http://www.w3.org/2000/svg" viewBox="0 0 432.6 89.17"><title>incuVAGdora</title><g id="Capa_2" data-name="Capa 2"><g id="Capa_1-2" data-name="Capa 1"><g id="Capa_1-2-2" data-name="Capa 1-2"><rect width="432.6" height="89.17" rx="11.34" style="fill:#1e1e1c"/><path d="M23.52,29.12v31H15.18v-31Z" style="fill:#dadada"/><path d="M66.58,54.09a8.5,8.5,0,0,1-.48,3,5.81,5.81,0,0,1-1.28,2.06A4.94,4.94,0,0,1,63,60.35a6.61,6.61,0,0,1-2.2.38,9.65,9.65,0,0,1-3.45-.57,6.31,6.31,0,0,1-2.59-1.85l-17-19.66a1,1,0,0,0-.73-.41.75.75,0,0,0-.55.23.87.87,0,0,0-.23.64v21H28.06V35.68a9.55,9.55,0,0,1,.52-3.35,5.66,5.66,0,0,1,1.49-2.24,5.79,5.79,0,0,1,2.29-1.26,10.08,10.08,0,0,1,2.89-.39,9.25,9.25,0,0,1,3.71.68,9,9,0,0,1,3,2.39L57.06,49.6a.88.88,0,0,0,.36.3,1.14,1.14,0,0,0,.41.07c.43,0,.64-.28.64-.83v-20h8.11Z" style="fill:#dadada"/><path d="M103.14,60.09H86.93a17.79,17.79,0,0,1-7.24-1.35,15.37,15.37,0,0,1-5.22-3.69,15.07,15.07,0,0,1-2.94-4.71,15.55,15.55,0,0,1-1-5.73,15,15,0,0,1,1.33-6.32,15.53,15.53,0,0,1,3.66-5.09,15,15,0,0,1,4.88-3A18.22,18.22,0,0,1,87,29.12h16.21v8.2H86.93a9.63,9.63,0,0,0-3.49.55,8,8,0,0,0-2.38,1.47,7.6,7.6,0,0,0-1.67,2.38,7.2,7.2,0,0,0-.62,2.93,7.41,7.41,0,0,0,.5,2.68,6.81,6.81,0,0,0,1.43,2.23,7.18,7.18,0,0,0,2.51,1.74,9.44,9.44,0,0,0,3.72.64h16.21Z" style="fill:#dadada"/><path d="M117.71,60.09a19.15,19.15,0,0,1-5-.57,7.92,7.92,0,0,1-3.37-1.79,7,7,0,0,1-1.9-3.07,14.64,14.64,0,0,1-.6-4.46V29.12h8.34V49.28c0,1.93,1,2.89,3,2.89H131c2.05,0,3.07-1,3.07-2.89V29.12h8.34V50.2q0,5.17-2.52,7.53c-1.68,1.58-4.46,2.36-8.34,2.36Z" style="fill:#dadada"/><path d="M145.93,30.5c-.12-.25-.22-.47-.3-.69a6.24,6.24,0,0,1-.2-.69h9.8a8.62,8.62,0,0,0,.32,1.1l9.25,21.4a1.72,1.72,0,0,0,.58.73,1.33,1.33,0,0,0,.75.23,1.38,1.38,0,0,0,.74-.21,1.65,1.65,0,0,0,.55-.75l9.16-21.4a5.93,5.93,0,0,0,.37-1.1h9.66c-.06.25-.13.48-.2.69a6.3,6.3,0,0,1-.3.69L175,55.05a8.88,8.88,0,0,1-8.93,5.68,9.12,9.12,0,0,1-9-5.68Z" style="fill:#fff"/><path d="M236,60.09a17.79,17.79,0,0,1-7.24-1.35,15.17,15.17,0,0,1-9.21-14.13,15,15,0,0,1,1.33-6.32,15.53,15.53,0,0,1,3.66-5.09,15,15,0,0,1,4.88-3A18.22,18.22,0,0,1,236,29.12h16.72v8.2H236a9.61,9.61,0,0,0-3.48.55,7.75,7.75,0,0,0-2.39,1.47,7.6,7.6,0,0,0-1.67,2.38,7.23,7.23,0,0,0-.11,5.61,6.63,6.63,0,0,0,1.42,2.23,7.94,7.94,0,0,0,2.52,1.81,8.61,8.61,0,0,0,3.71.71h7.92c.4,0,.6-.22.6-.65V43.14h8.24v15a1.74,1.74,0,0,1-1.43,2,1.82,1.82,0,0,1-.57,0Z" style="fill:#fff"/><path d="M276,29.12a18.38,18.38,0,0,1,6.57,1.08,15,15,0,0,1,4.88,3,15.53,15.53,0,0,1,3.66,5.09,15,15,0,0,1,1.33,6.32,15.39,15.39,0,0,1-1.05,5.73,15.15,15.15,0,0,1-2.93,4.71,15.5,15.5,0,0,1-5.23,3.69A17.74,17.74,0,0,1,276,60.09H259.22a1.76,1.76,0,0,1-2-1.48,1.51,1.51,0,0,1,0-.52v-27a1.74,1.74,0,0,1,2-1.93Zm-9.85,8.2c-.4,0-.6.22-.6.65V51.3c0,.43.2.64.6.64H276a9.4,9.4,0,0,0,3.71-.64,7.45,7.45,0,0,0,2.52-1.74,7,7,0,0,0,1.42-2.23,7.41,7.41,0,0,0,.5-2.68,7.2,7.2,0,0,0-.62-2.93,7.6,7.6,0,0,0-1.67-2.38,8,8,0,0,0-2.38-1.47,9.61,9.61,0,0,0-3.48-.55Z" style="fill:#dadada"/><path d="M312.14,60.09a17.79,17.79,0,0,1-7.24-1.35,15.17,15.17,0,0,1-9.21-14.13A15,15,0,0,1,297,38.29a15.53,15.53,0,0,1,3.66-5.09,15.18,15.18,0,0,1,4.88-3,18.22,18.22,0,0,1,6.58-1.08h6.5a18.22,18.22,0,0,1,6.58,1.08,14.86,14.86,0,0,1,4.87,3,15.71,15.71,0,0,1,3.67,5.09,15.3,15.3,0,0,1-7.52,20.29l-.36.16a17.79,17.79,0,0,1-7.24,1.35Zm0-22.77a9.61,9.61,0,0,0-3.48.55,8,8,0,0,0-2.39,1.47,7.6,7.6,0,0,0-1.67,2.38,7.23,7.23,0,0,0-.11,5.61,6.63,6.63,0,0,0,1.42,2.23,7.21,7.21,0,0,0,2.52,1.74,9.4,9.4,0,0,0,3.71.64h6.5a9.4,9.4,0,0,0,3.71-.64,7.21,7.21,0,0,0,2.52-1.74,6.63,6.63,0,0,0,1.42-2.23,7.23,7.23,0,0,0-.11-5.61,7.76,7.76,0,0,0-1.67-2.38,8,8,0,0,0-2.39-1.47,9.61,9.61,0,0,0-3.48-.55Z" style="fill:#dadada"/><path d="M347.36,60.09h-8.29v-29c0-1.28.69-1.93,2.06-1.93h22a12.14,12.14,0,0,1,4.77.81,9.43,9.43,0,0,1,3.16,2.13,8.79,8.79,0,0,1,1.81,2.77,8.59,8.59,0,0,1,.66,3.32,9.78,9.78,0,0,1-.64,3.55,6.3,6.3,0,0,1-2.29,2.86,5.63,5.63,0,0,1,2.27,2.34,9.34,9.34,0,0,1,.71,4.08v7.83a9.09,9.09,0,0,0,.12,1.28h-8.39a15.72,15.72,0,0,1-.13-2.06V51.85a2.6,2.6,0,0,0-.78-2.11,4.13,4.13,0,0,0-2.61-.64H347.36ZM362,42a3.2,3.2,0,0,0,1.43-.27,2.67,2.67,0,0,0,.91-.73,2.51,2.51,0,0,0,.6-1.61,2.36,2.36,0,0,0-.69-1.74,2.85,2.85,0,0,0-2.25-.82H348a.62.62,0,0,0-.69.52.43.43,0,0,0,0,.16V42Z" style="fill:#dadada"/><path d="M416.91,58.72a7.17,7.17,0,0,1,.3.69c.07.21.14.44.2.68h-9.34c-.05-.19-.12-.38-.19-.57s-.12-.33-.18-.48l-1.65-3.76H387.73L386.12,59l-.18.55a3.41,3.41,0,0,0-.14.55h-9.57c.06-.24.13-.47.2-.68a7.17,7.17,0,0,1,.3-.69l11.09-24.56a8.94,8.94,0,0,1,9-5.72,9.7,9.7,0,0,1,5.43,1.42,9.81,9.81,0,0,1,3.5,4.3ZM403,48.46l-4.77-11.09a1.47,1.47,0,0,0-1.42-1,1.61,1.61,0,0,0-.77.2,1.46,1.46,0,0,0-.6.76l-4.72,11.09Z" style="fill:#dadada"/></g><path d="M213.19,43.24l7.11,15.61a6.57,6.57,0,0,1,.3.69c.07.21.14.44.2.68h-9.34c-.07-.21-.13-.4-.19-.57s-.12-.33-.18-.48l-4.23-8.92H193.05l-3.54,8.87c-.06.19-.12.37-.19.55a4,4,0,0,0-.13.55h-9.58a6,6,0,0,1,.21-.68,4.87,4.87,0,0,1,.29-.69c2.35-5.19,7-15.56,7-15.56Zm-22.85-7,.86-1.92A9,9,0,0,1,194.69,30a10.51,10.51,0,0,1,3.91-1.33l.6-3.81a2.8,2.8,0,0,1-1.63-2.37,2.7,2.7,0,0,1,2.64-2.64,2.64,2.64,0,0,1,2.63,2.64,2.7,2.7,0,0,1-1.52,2.38l.41,3.79A10.47,10.47,0,0,1,205.61,30a9.13,9.13,0,0,1,3.51,4.31l.85,1.86Z" style="fill:#fff"/></g></g></svg>