<svg xmlns="http://www.w3.org/2000/svg" viewBox="0 0 210.89 116.81"><title>incuVAGdora</title><g id="Capa_2" data-name="Capa 2"><g id="Capa_1-2" data-name="Capa 1"><rect x="0.24" width="210.65" height="89.17" rx="11.34" style="fill:#000"/><path d="M4.36,100.27v16.2H0v-16.2Z" style="fill:#000"/><path d="M26.89,113.33a4.34,4.34,0,0,1-.26,1.57A2.92,2.92,0,0,1,26,116a2.56,2.56,0,0,1-1,.62,3.21,3.21,0,0,1-1.15.21,5,5,0,0,1-1.81-.3,3.38,3.38,0,0,1-1.35-1l-8.89-10.28a.53.53,0,0,0-.38-.22.38.38,0,0,0-.29.12.45.45,0,0,0-.12.34v11H6.73V103.7A5,5,0,0,1,7,102a2.87,2.87,0,0,1,.78-1.17,2.82,2.82,0,0,1,1.2-.66,5.15,5.15,0,0,1,1.51-.21,4.7,4.7,0,0,1,1.94.36A4.76,4.76,0,0,1,14,101.52L21.9,111a.45.45,0,0,0,.19.16.78.78,0,0,0,.22,0c.22,0,.33-.15.33-.44V100.27h4.25Z" style="fill:#000"/><path d="M46,116.47H37.53a9.19,9.19,0,0,1-3.79-.71,7.86,7.86,0,0,1-4.27-4.39,8.24,8.24,0,0,1-.55-3,7.79,7.79,0,0,1,.7-3.3,8.07,8.07,0,0,1,1.91-2.66,7.49,7.49,0,0,1,2.56-1.57,9.46,9.46,0,0,1,3.44-.57H46v4.29H37.53a5,5,0,0,0-1.83.29,4,4,0,0,0-1.24.77,3.94,3.94,0,0,0-.88,1.24,3.79,3.79,0,0,0-.32,1.54,3.87,3.87,0,0,0,.26,1.4,3.62,3.62,0,0,0,.75,1.16,3.75,3.75,0,0,0,1.31.91,5.08,5.08,0,0,0,2,.34H46Z" style="fill:#000"/><path d="M53.63,116.47a9.89,9.89,0,0,1-2.62-.3,4.29,4.29,0,0,1-1.76-.93,3.78,3.78,0,0,1-1-1.61A7.56,7.56,0,0,1,48,111.3v-11h4.36v10.55a1.36,1.36,0,0,0,1.56,1.51H60.6c1.07,0,1.61-.51,1.61-1.51V100.27h4.36v11a5.17,5.17,0,0,1-1.32,3.94c-.88.82-2.33,1.23-4.36,1.23Z" style="fill:#000"/><path d="M68.39,101a2.68,2.68,0,0,1-.16-.36c0-.11-.07-.23-.11-.36h5.13c0,.21.11.4.17.58L78.26,112a.91.91,0,0,0,.3.38.7.7,0,0,0,.4.12.63.63,0,0,0,.38-.11.83.83,0,0,0,.29-.39l4.79-11.19a3.29,3.29,0,0,0,.19-.58h5.06c0,.13-.07.25-.11.36a2.68,2.68,0,0,1-.16.36l-5.8,12.85a4.65,4.65,0,0,1-4.67,3,4.76,4.76,0,0,1-4.7-3Z" style="fill:#000"/><path d="M107.28,115.75q.09.19.15.36a3.07,3.07,0,0,1,.11.36h-4.89q0-.16-.09-.3c0-.09-.07-.17-.1-.25l-.86-2H92l-.84,1.94-.09.28a1.74,1.74,0,0,0-.07.29H86a3.07,3.07,0,0,1,.11-.36q.06-.17.15-.36l5.8-12.84a4.69,4.69,0,0,1,4.7-3,4.71,4.71,0,0,1,4.67,3ZM100,110.39l-2.49-5.8a.85.85,0,0,0-.32-.39.81.81,0,0,0-.83,0,.78.78,0,0,0-.32.4l-2.47,5.8Z" style="fill:#000"/><path d="M115.5,116.47a9.19,9.19,0,0,1-3.79-.71,8.12,8.12,0,0,1-2.73-1.92,7.88,7.88,0,0,1-1.53-2.47,8,8,0,0,1-.56-3,8.05,8.05,0,0,1,2.62-6,7.44,7.44,0,0,1,2.55-1.57,9.5,9.5,0,0,1,3.44-.57h8.74v4.29H115.5a5,5,0,0,0-1.82.29,4,4,0,0,0-1.25.77,3.94,3.94,0,0,0-.88,1.24,3.79,3.79,0,0,0-.32,1.54,3.67,3.67,0,0,0,.27,1.4,3.43,3.43,0,0,0,.74,1.16,4.22,4.22,0,0,0,1.32,1,4.63,4.63,0,0,0,1.94.37h4.14c.21,0,.31-.11.31-.34v-4.33h4.32v7.83a.91.91,0,0,1-1,1Z" style="fill:#000"/><path d="M136.39,100.27a9.5,9.5,0,0,1,3.44.57,7.54,7.54,0,0,1,2.55,1.57,8,8,0,0,1,2.61,6,7.87,7.87,0,0,1-4.81,7.39,9.19,9.19,0,0,1-3.79.71h-8.74a.92.92,0,0,1-1.06-1V101.28c0-.67.35-1,1.06-1Zm-5.15,4.29c-.21,0-.31.11-.31.34v7c0,.22.1.34.31.34h5.15a5,5,0,0,0,1.94-.34,3.7,3.7,0,0,0,1.32-.91,3.43,3.43,0,0,0,.74-1.16,3.76,3.76,0,0,0-.06-2.94,3.76,3.76,0,0,0-.87-1.24,4,4,0,0,0-1.25-.77,5,5,0,0,0-1.82-.29Z" style="fill:#000"/><path d="M155.32,116.47a9.17,9.17,0,0,1-3.78-.71,8.16,8.16,0,0,1-2.74-1.92,8.26,8.26,0,0,1-1.53-2.47,8,8,0,0,1-.55-3,7.93,7.93,0,0,1,.69-3.3,8.24,8.24,0,0,1,1.92-2.66,7.54,7.54,0,0,1,2.55-1.57,9.54,9.54,0,0,1,3.44-.57h3.4a9.5,9.5,0,0,1,3.44.57,7.35,7.35,0,0,1,2.55,1.57,8.05,8.05,0,0,1,2.62,6,8.24,8.24,0,0,1-.55,3,7.86,7.86,0,0,1-4.27,4.39,9.19,9.19,0,0,1-3.79.71Zm0-11.91a5,5,0,0,0-1.82.29,4.17,4.17,0,0,0-1.25.77,4.08,4.08,0,0,0-.87,1.24,3.88,3.88,0,0,0-.06,2.94,3.59,3.59,0,0,0,.74,1.16,3.7,3.7,0,0,0,1.32.91,5,5,0,0,0,1.94.34h3.4a5.08,5.08,0,0,0,1.95-.34A3.75,3.75,0,0,0,162,111a3.62,3.62,0,0,0,.75-1.16,3.87,3.87,0,0,0,.26-1.4,3.79,3.79,0,0,0-.32-1.54,3.94,3.94,0,0,0-.88-1.24,4,4,0,0,0-1.24-.77,5,5,0,0,0-1.83-.29Z" style="fill:#000"/><path d="M173.75,116.47h-4.34V101.28c0-.67.36-1,1.08-1H182a6.34,6.34,0,0,1,2.49.42,4.91,4.91,0,0,1,1.66,1.12,4.59,4.59,0,0,1,.94,1.45,4.46,4.46,0,0,1,.35,1.73,5,5,0,0,1-.34,1.86,3.34,3.34,0,0,1-1.19,1.5,3,3,0,0,1,1.18,1.22,4.88,4.88,0,0,1,.37,2.13v3.24c0,.35,0,.64,0,.86a3.79,3.79,0,0,0,.06.67h-4.39a7.64,7.64,0,0,1-.07-1.08v-3.23a1.35,1.35,0,0,0-.41-1.1,2.12,2.12,0,0,0-1.36-.34h-7.55Zm7.67-9.44a1.74,1.74,0,0,0,.74-.14,1.53,1.53,0,0,0,.48-.39,1.27,1.27,0,0,0,.31-.84,1.24,1.24,0,0,0-.36-.91,1.52,1.52,0,0,0-1.17-.43h-7.31a.32.32,0,0,0-.36.36V107Z" style="fill:#000"/><path d="M210.12,115.75a2.68,2.68,0,0,1,.16.36c0,.11.07.23.11.36H205.5c0-.11-.07-.21-.1-.3l-.09-.25-.87-2h-9.58L194,115.9c0,.09-.06.19-.1.28s0,.2-.07.29h-5c0-.13.07-.25.11-.36a2.68,2.68,0,0,1,.16-.36l5.8-12.84a5.14,5.14,0,0,1,1.82-2.25,5.81,5.81,0,0,1,5.71,0,5.17,5.17,0,0,1,1.84,2.25Zm-7.26-5.36-2.49-5.8a.83.83,0,0,0-.31-.39.8.8,0,0,0-.43-.12.84.84,0,0,0-.41.11.77.77,0,0,0-.31.4l-2.47,5.8Z" style="fill:#000"/><path d="M22.25,27.33c-.18-.38-.34-.73-.46-1.06s-.22-.69-.32-1.07h15.2a13.91,13.91,0,0,0,.5,1.71L51.51,60.07a2.56,2.56,0,0,0,.89,1.13,2,2,0,0,0,1.17.36,2.08,2.08,0,0,0,1.14-.32,2.47,2.47,0,0,0,.85-1.17l14.2-33.16a8.58,8.58,0,0,0,.57-1.71h15A9.65,9.65,0,0,1,85,26.27a8.31,8.31,0,0,1-.46,1.06L67.35,65.39A15.24,15.24,0,0,1,62,72,15.2,15.2,0,0,1,53.5,74.2q-9.95,0-13.92-8.81Z" style="fill:#B58255"/><path d="M126.5,46.89l11,24.18a10.13,10.13,0,0,1,.46,1.07c.12.33.22.69.32,1.07H123.8c-.09-.34-.19-.63-.28-.89s-.19-.51-.29-.75l-6.55-13.82H95.27L89.79,71.5c-.1.28-.19.57-.29.85a6.73,6.73,0,0,0-.21.86H74.45a9.65,9.65,0,0,1,.32-1.07,10.13,10.13,0,0,1,.46-1.07L86.12,47ZM91.07,36l1.34-3a13.86,13.86,0,0,1,5.4-6.67,16.33,16.33,0,0,1,6.07-2.07l.92-5.9a4.39,4.39,0,0,1-2.51-3.68,4.15,4.15,0,0,1,4.08-4.08,4.08,4.08,0,0,1,4.08,4.08,4.22,4.22,0,0,1-2.35,3.7l.63,5.87a16.08,16.08,0,0,1,6,2.08A14.07,14.07,0,0,1,120.18,33l1.32,2.89Z" style="fill:#B58255"/><path d="M161.86,73.21a27.6,27.6,0,0,1-11.22-2.1A23.55,23.55,0,0,1,136.37,49.2a23.52,23.52,0,0,1,2.06-9.8,24.23,24.23,0,0,1,5.68-7.88,22.88,22.88,0,0,1,7.56-4.65,28.53,28.53,0,0,1,10.19-1.67h25.92V37.91H161.86a14.78,14.78,0,0,0-5.39.85,12.13,12.13,0,0,0-3.7,2.28,11.66,11.66,0,0,0-2.59,3.69,10.94,10.94,0,0,0-1,4.54,11.11,11.11,0,0,0,.78,4.16,10.63,10.63,0,0,0,2.21,3.44,12.36,12.36,0,0,0,3.9,2.81,13.53,13.53,0,0,0,5.75,1.1h12.29c.61,0,.92-.33.92-1V46.93h12.78V70.15q0,3.06-3,3.06Z" style="fill:#B58255"/></g></g></svg>