<svg xmlns="http://www.w3.org/2000/svg" viewBox="0 0 210.65 89.17"><title>VAG</title><g id="Capa_2" data-name="Capa 2"><g id="Capa_1-2" data-name="Capa 1"><path d="M20.31,27.33c-.18-.38-.34-.73-.46-1.06s-.22-.69-.32-1.07h15.2a13.91,13.91,0,0,0,.5,1.71L49.57,60.07a2.56,2.56,0,0,0,.89,1.13,2,2,0,0,0,1.17.36,2.08,2.08,0,0,0,1.14-.32,2.47,2.47,0,0,0,.85-1.17l14.2-33.16a8.58,8.58,0,0,0,.57-1.71h15a9.65,9.65,0,0,1-.32,1.07,10,10,0,0,1-.46,1.06L65.41,65.39A15.24,15.24,0,0,1,60,72a15.2,15.2,0,0,1-8.45,2.17q-9.95,0-13.92-8.81Z" style="fill:#78B74B"/><path d="M124.56,46.89l11,24.18a10.13,10.13,0,0,1,.46,1.07c.12.33.22.69.32,1.07H121.86c-.09-.34-.19-.63-.28-.89s-.19-.51-.29-.75l-6.55-13.82H93.33L87.85,71.5c-.1.28-.19.57-.29.85a6.73,6.73,0,0,0-.21.86H72.51a9.65,9.65,0,0,1,.32-1.07,10.13,10.13,0,0,1,.46-1.07L84.18,47ZM89.13,36l1.34-3a13.86,13.86,0,0,1,5.4-6.67,16.33,16.33,0,0,1,6.07-2.07l.92-5.9a4.37,4.37,0,0,1-2.51-3.68,4.15,4.15,0,0,1,4.08-4.08,4.08,4.08,0,0,1,4.08,4.08,4.24,4.24,0,0,1-2.35,3.7l.63,5.87a16.08,16.08,0,0,1,6,2.08A14.07,14.07,0,0,1,118.24,33l1.32,2.89Z" style="fill:#78B74B"/><path d="M159.92,73.21a27.6,27.6,0,0,1-11.22-2.1A23.55,23.55,0,0,1,134.43,49.2a23.52,23.52,0,0,1,2.06-9.8,24.23,24.23,0,0,1,5.68-7.88,22.88,22.88,0,0,1,7.56-4.65,28.53,28.53,0,0,1,10.19-1.67h25.92V37.91H159.92a14.78,14.78,0,0,0-5.39.85,12.13,12.13,0,0,0-3.7,2.28,11.66,11.66,0,0,0-2.59,3.69,10.94,10.94,0,0,0-1,4.54,11.11,11.11,0,0,0,.78,4.16,10.77,10.77,0,0,0,2.2,3.44,12.52,12.52,0,0,0,3.91,2.81,13.53,13.53,0,0,0,5.75,1.1h12.29c.61,0,.92-.33.92-1V46.93h12.78V70.15q0,3.06-3,3.06Z" style="fill:#78B74B"/></g></g></svg>
