<svg xmlns="http://www.w3.org/2000/svg" viewBox="0 0 262.7 143.88"><title>Video Art Game</title><g id="Capa_2" data-name="Capa 2"><g id="Capa_1-2" data-name="Capa 1"><g id="Capa_1-2-2" data-name="Capa 1-2"><rect width="262.7" height="111.2" rx="14.14" style="fill:#000"/></g><path d="M.73,127.93a2.68,2.68,0,0,1-.16-.36,3.07,3.07,0,0,1-.11-.36H5.63a4.41,4.41,0,0,0,.17.58l4.88,11.28a.85.85,0,0,0,.3.38.64.64,0,0,0,.4.13.7.7,0,0,0,.38-.11.85.85,0,0,0,.29-.4l4.83-11.28a3.3,3.3,0,0,0,.2-.58h5.09a3.1,3.1,0,0,1-.1.36l-.16.36-5.85,12.95a5.19,5.19,0,0,1-1.83,2.26,5.22,5.22,0,0,1-2.88.74,4.79,4.79,0,0,1-4.73-3Z" style="fill:#000"/><path d="M28.31,127.21v16.33h-4.4V127.21Z" style="fill:#000"/><path d="M40.63,127.21a9.61,9.61,0,0,1,3.46.57,7.7,7.7,0,0,1,2.58,1.58A8.31,8.31,0,0,1,48.6,132a7.92,7.92,0,0,1,.7,3.33,8.11,8.11,0,0,1-.56,3,8,8,0,0,1-1.54,2.49,8.15,8.15,0,0,1-2.76,1.94,9.32,9.32,0,0,1-3.81.72H31.81a.93.93,0,0,1-1.06-1V128.22c0-.67.35-1,1.06-1Zm-5.2,4.32c-.21,0-.31.12-.31.34v7c0,.22.1.34.31.34h5.2a5.08,5.08,0,0,0,1.95-.34,3.68,3.68,0,0,0,1.33-.92,3.78,3.78,0,0,0,.75-1.17,3.81,3.81,0,0,0-.06-3,4.14,4.14,0,0,0-.88-1.26,4.3,4.3,0,0,0-1.26-.77,5,5,0,0,0-1.83-.29Z" style="fill:#000"/><path d="M68.55,127.21v4.32H56.13c-.25,0-.38.14-.38.41v1.86H68.48v3.14H55.75v2c0,.29.13.44.38.44H68.55v4.18H53.67a2,2,0,0,1-2.29-2.27V129.41c0-1.47.77-2.2,2.31-2.2Z" style="fill:#000"/><path d="M78.91,143.54a9.28,9.28,0,0,1-3.81-.72,8.15,8.15,0,0,1-2.76-1.94,8,8,0,0,1-1.54-2.49,8.11,8.11,0,0,1-.56-3,7.92,7.92,0,0,1,.7-3.33,8.31,8.31,0,0,1,1.93-2.68,7.7,7.7,0,0,1,2.58-1.58,9.61,9.61,0,0,1,3.46-.57h3.43a9.67,9.67,0,0,1,3.47.57,7.56,7.56,0,0,1,2.57,1.58A8.17,8.17,0,0,1,90.31,132a7.92,7.92,0,0,1,.7,3.33,8.11,8.11,0,0,1-.55,3,8,8,0,0,1-1.55,2.49,8.11,8.11,0,0,1-2.75,1.94,9.33,9.33,0,0,1-3.82.72Zm0-12a5,5,0,0,0-1.83.29,3.68,3.68,0,0,0-2.14,2,3.81,3.81,0,0,0-.06,3,3.61,3.61,0,0,0,.75,1.17,3.68,3.68,0,0,0,1.33.92,5.08,5.08,0,0,0,2,.34h3.43a5.14,5.14,0,0,0,2-.34,3.86,3.86,0,0,0,1.33-.92,3.78,3.78,0,0,0,.75-1.17,3.88,3.88,0,0,0,.26-1.41,3.84,3.84,0,0,0-.32-1.55,4.17,4.17,0,0,0-.89-1.26,4.25,4.25,0,0,0-1.25-.77,5.11,5.11,0,0,0-1.84-.29Z" style="fill:#000"/><path d="M123.55,142.81l.16.36c0,.12.07.24.1.37h-4.92l-.1-.3a2,2,0,0,0-.1-.26l-.87-2h-9.66l-.84,2a2.47,2.47,0,0,0-.1.29,1.37,1.37,0,0,0-.07.29H102.1c0-.13.07-.25.11-.37s.09-.23.15-.36l5.85-12.94a5.27,5.27,0,0,1,1.84-2.28,5.1,5.1,0,0,1,7.6,2.28Zm-7.32-5.41-2.51-5.84a.85.85,0,0,0-.32-.39.8.8,0,0,0-.43-.12.84.84,0,0,0-.41.11.74.74,0,0,0-.32.4l-2.48,5.84Z" style="fill:#000"/><path d="M129.9,143.54h-4.37V128.22c0-.67.36-1,1.09-1h11.59a6.48,6.48,0,0,1,2.51.42,5.1,5.1,0,0,1,1.67,1.12,4.71,4.71,0,0,1,1,1.47,4.34,4.34,0,0,1,.35,1.75,5.09,5.09,0,0,1-.34,1.87,3.27,3.27,0,0,1-1.2,1.51,3,3,0,0,1,1.19,1.23,4.93,4.93,0,0,1,.38,2.15V142c0,.36,0,.64,0,.87s0,.45.06.68h-4.42a7.88,7.88,0,0,1-.07-1.09v-3.26a1.36,1.36,0,0,0-.41-1.11,2.18,2.18,0,0,0-1.38-.34H129.9Zm7.73-9.52a1.76,1.76,0,0,0,.75-.14,1.53,1.53,0,0,0,.48-.39,1.32,1.32,0,0,0,.32-.85,1.24,1.24,0,0,0-.37-.91,1.49,1.49,0,0,0-1.18-.44h-7.37a.32.32,0,0,0-.36.36V134Z" style="fill:#000"/><path d="M163.86,127.21v4.32h-7.15v12h-4.39v-12h-7.18v-4.32Z" style="fill:#000"/><path d="M183.62,143.54a9.33,9.33,0,0,1-3.82-.72,8.11,8.11,0,0,1-2.75-1.94,8,8,0,0,1-1.55-2.49,8.11,8.11,0,0,1-.55-3,7.92,7.92,0,0,1,.7-3.33,8.17,8.17,0,0,1,1.93-2.68,7.65,7.65,0,0,1,2.57-1.58,9.67,9.67,0,0,1,3.47-.57h8.82v4.32h-8.82a5.11,5.11,0,0,0-1.84.29,4.25,4.25,0,0,0-1.25.77,4,4,0,0,0-.88,1.26,3.81,3.81,0,0,0-.06,3,3.58,3.58,0,0,0,.74,1.17,4.25,4.25,0,0,0,1.33,1,4.6,4.6,0,0,0,2,.37h4.18c.21,0,.31-.11.31-.34V134.6h4.35v7.9a.92.92,0,0,1-1,1Z" style="fill:#000"/><path d="M215.24,142.81q.09.19.15.36c0,.12.08.24.11.37h-4.93a2.82,2.82,0,0,0-.09-.3c0-.09-.07-.18-.1-.26l-.87-2h-9.66l-.85,2-.09.29a1.37,1.37,0,0,0-.07.29h-5.05c0-.13.07-.25.11-.37s.09-.23.15-.36l5.85-12.94a5.32,5.32,0,0,1,1.83-2.28,5.27,5.27,0,0,1,2.9-.74,4.71,4.71,0,0,1,4.71,3Zm-7.32-5.41-2.51-5.84a.91.91,0,0,0-.32-.39.8.8,0,0,0-.43-.12.81.81,0,0,0-.41.11.74.74,0,0,0-.32.4l-2.49,5.84Z" style="fill:#000"/><path d="M229.73,143.88a3.7,3.7,0,0,1-1.62-.37,2.38,2.38,0,0,1-1.13-1.13l-5-10.27a.29.29,0,0,0-.31-.19.36.36,0,0,0-.27.11.41.41,0,0,0-.12.32v11.19h-4.2v-12a5.53,5.53,0,0,1,.4-2.27,3.75,3.75,0,0,1,1.12-1.47,5.24,5.24,0,0,1,1.27-.72,4.44,4.44,0,0,1,1.58-.27,3.77,3.77,0,0,1,2.53.84,6.55,6.55,0,0,1,1.6,2.2l3.7,8a.43.43,0,0,0,.82,0l3.7-8a6.4,6.4,0,0,1,1.59-2.2,3.72,3.72,0,0,1,2.54-.84,4.44,4.44,0,0,1,1.58.27,5.43,5.43,0,0,1,1.27.72,3.85,3.85,0,0,1,1.12,1.47,5.7,5.7,0,0,1,.4,2.27v12h-4.21V132.35A.41.41,0,0,0,238,132a.36.36,0,0,0-.26-.11.31.31,0,0,0-.32.19l-5,10.27a2.43,2.43,0,0,1-1.13,1.13A3.7,3.7,0,0,1,229.73,143.88Z" style="fill:#000"/><path d="M261.85,127.21v4.32H249.44c-.26,0-.39.14-.39.41v1.86h12.73v3.14H249.05v2c0,.29.13.44.39.44h12.41v4.18H247a2,2,0,0,1-2.3-2.27V129.41c0-1.47.77-2.2,2.32-2.2Z" style="fill:#000"/><path d="M25.33,34.08a14.09,14.09,0,0,1-.58-1.32c-.14-.41-.27-.86-.39-1.33h19a17.85,17.85,0,0,0,.62,2.13L61.82,74.91a3.15,3.15,0,0,0,1.11,1.41,2.47,2.47,0,0,0,1.46.45,2.57,2.57,0,0,0,1.42-.4,3.1,3.1,0,0,0,1.06-1.46L84.58,33.56a10.66,10.66,0,0,0,.71-2.13H104a12.62,12.62,0,0,1-.39,1.33,12.88,12.88,0,0,1-.58,1.32L81.57,81.55a19,19,0,0,1-6.74,8.24A19.06,19.06,0,0,1,64.29,92.5q-12.4,0-17.36-11Z" style="fill:#fff"/><path d="M155.34,58.48l13.72,30.15c.21.43.4.88.57,1.34s.27.86.4,1.33H152c-.11-.42-.24-.79-.35-1.11s-.24-.64-.36-.94L143.09,72h-26.7l-6.83,17.15c-.13.35-.24.71-.36,1.06a8,8,0,0,0-.27,1.07H90.43a10.18,10.18,0,0,1,.4-1.33,10.57,10.57,0,0,1,.57-1.34l13.58-30ZM111.15,44.9l1.67-3.75a17.3,17.3,0,0,1,6.74-8.31,20.4,20.4,0,0,1,7.57-2.59l1.15-7.35a5.44,5.44,0,0,1-3.13-4.59,5.17,5.17,0,0,1,5.08-5.09,5.09,5.09,0,0,1,5.09,5.09h0a5.27,5.27,0,0,1-2.93,4.61l.79,7.32a20,20,0,0,1,7.48,2.6,17.53,17.53,0,0,1,6.8,8.31l1.64,3.61Z" style="fill:#fff"/><path d="M199.43,91.3a34.43,34.43,0,0,1-14-2.62,30,30,0,0,1-15.22-39.54,30.13,30.13,0,0,1,7.08-9.83,28.53,28.53,0,0,1,9.43-5.8,35.46,35.46,0,0,1,12.7-2.08h32.33V47.28H199.43a18.34,18.34,0,0,0-6.72,1.06,15,15,0,0,0-4.61,2.84,14.52,14.52,0,0,0-3.23,4.6,13.69,13.69,0,0,0-1.25,5.66,13.94,13.94,0,0,0,1,5.19,13.57,13.57,0,0,0,2.75,4.29,15.82,15.82,0,0,0,4.87,3.51,17,17,0,0,0,7.17,1.37h15.33c.76,0,1.15-.41,1.15-1.25v-16H231.8v29q0,3.83-3.74,3.82Z" style="fill:#fff"/></g></g></svg>