<svg xmlns="http://www.w3.org/2000/svg" viewBox="0 0 210.65 119.09"><title>VAGchallenge</title><g id="Capa_2" data-name="Capa 2"><g id="Capa_1-2" data-name="Capa 1"><rect width="210.65" height="89.17" rx="11.34" style="fill:#1d1d1b"/><path d="M20.42,118.69H10.28a11,11,0,0,1-4.52-.85,9.34,9.34,0,0,1-5.1-5.25A9.61,9.61,0,0,1,0,109a9.51,9.51,0,0,1,.83-4,9.8,9.8,0,0,1,2.29-3.18A9.37,9.37,0,0,1,6.17,100a11.69,11.69,0,0,1,4.11-.67H20.42v5.13H10.28a5.94,5.94,0,0,0-2.18.34,4.79,4.79,0,0,0-1.49.92,4.88,4.88,0,0,0-1,1.48,4.53,4.53,0,0,0-.07,3.51,4.14,4.14,0,0,0,.89,1.39A4.46,4.46,0,0,0,8,113.19a5.88,5.88,0,0,0,2.32.4H20.42Z" style="fill:#1d1d1b"/><path d="M44.85,99.33v19.36H39.63v-7.48H28.09v7.48H22.88V99.33h5.21v7H39.63v-7Z" style="fill:#1d1d1b"/><path d="M72.31,117.83a3.63,3.63,0,0,1,.18.43,4.38,4.38,0,0,1,.13.43H66.78c0-.13-.08-.25-.11-.36l-.12-.3-1-2.35H54.07l-1,2.32-.11.35a1.89,1.89,0,0,0-.09.34h-6a4.38,4.38,0,0,1,.13-.43,3.63,3.63,0,0,1,.18-.43l6.93-15.35a6.27,6.27,0,0,1,2.18-2.69,6.07,6.07,0,0,1,9,2.69Zm-8.68-6.42-3-6.92a1,1,0,0,0-.37-.46.91.91,0,0,0-.52-.15,1,1,0,0,0-.48.13.89.89,0,0,0-.37.48L56,111.41Z" style="fill:#1d1d1b"/><path d="M79.61,118.69a9.9,9.9,0,0,1-3-.39,4.51,4.51,0,0,1-2-1.17,4.59,4.59,0,0,1-1-2,10.79,10.79,0,0,1-.32-2.76V99.33h5.21V111.9a2.17,2.17,0,0,0,.36,1.45,1.83,1.83,0,0,0,1.36.38H93.67v5Z" style="fill:#1d1d1b"/><path d="M101.49,118.69a9.86,9.86,0,0,1-3-.39,4.45,4.45,0,0,1-2-1.17,4.6,4.6,0,0,1-1-2,10.82,10.82,0,0,1-.31-2.76V99.33h5.21V111.9a2.17,2.17,0,0,0,.36,1.45,1.83,1.83,0,0,0,1.36.38h13.43v5Z" style="fill:#1d1d1b"/><path d="M137.89,99.33v5.13H123.17c-.31,0-.46.16-.46.48v2.21H137.8v3.72H122.71v2.35c0,.34.15.51.46.51h14.72v5H120.25a2.39,2.39,0,0,1-2.72-2.69V101.94c0-1.74.91-2.61,2.75-2.61Z" style="fill:#1d1d1b"/><path d="M164.35,114.94a5.24,5.24,0,0,1-.3,1.87,3.47,3.47,0,0,1-.81,1.29,3.18,3.18,0,0,1-1.16.75,3.91,3.91,0,0,1-1.37.24,6,6,0,0,1-2.16-.36,4,4,0,0,1-1.62-1.16l-10.62-12.28a.63.63,0,0,0-.46-.26.5.5,0,0,0-.35.14.57.57,0,0,0-.14.4v13.12h-5.1V103.42a5.88,5.88,0,0,1,.33-2.09,3.58,3.58,0,0,1,.93-1.4,3.77,3.77,0,0,1,1.43-.79,6.55,6.55,0,0,1,1.81-.24,4.87,4.87,0,0,1,4.18,1.92l9.45,11.31a.55.55,0,0,0,.23.19.71.71,0,0,0,.26,0c.27,0,.4-.17.4-.52V99.33h5.07Z" style="fill:#1d1d1b"/><path d="M177.06,118.69a11,11,0,0,1-4.52-.85,9.34,9.34,0,0,1-5.1-5.25,9.61,9.61,0,0,1-.66-3.58,9.51,9.51,0,0,1,.83-4,9.8,9.8,0,0,1,2.29-3.18,9.37,9.37,0,0,1,3-1.88,11.73,11.73,0,0,1,4.11-.67h10.45v5.13H177.06a5.85,5.85,0,0,0-2.17.34,4.68,4.68,0,0,0-1.49.92,4.74,4.74,0,0,0-1.05,1.48,4.53,4.53,0,0,0-.07,3.51,4.14,4.14,0,0,0,.89,1.39,4.83,4.83,0,0,0,1.57,1.13,5.36,5.36,0,0,0,2.32.45h5c.24,0,.37-.14.37-.4v-5.19h5.15v9.37a1.09,1.09,0,0,1-1.23,1.23Z" style="fill:#1d1d1b"/><path d="M210.65,99.33v5.13H195.93a.42.42,0,0,0-.46.48v2.21h15.1v3.72h-15.1v2.35c0,.34.16.51.46.51h14.72v5H193a2.39,2.39,0,0,1-2.72-2.69V101.94c0-1.74.92-2.61,2.75-2.61Z" style="fill:#1d1d1b"/><path d="M20.31,27.33c-.18-.38-.34-.73-.46-1.06s-.22-.69-.32-1.07h15.2a13.91,13.91,0,0,0,.5,1.71L49.57,60.07a2.56,2.56,0,0,0,.89,1.13,2,2,0,0,0,1.17.36,2.08,2.08,0,0,0,1.14-.32,2.47,2.47,0,0,0,.85-1.17l14.2-33.16a8.58,8.58,0,0,0,.57-1.71h15a9.65,9.65,0,0,1-.32,1.07,10,10,0,0,1-.46,1.06L65.41,65.39A15.24,15.24,0,0,1,60,72a15.2,15.2,0,0,1-8.45,2.17q-9.95,0-13.92-8.81Z" style="fill:#ffed00"/><path d="M124.56,46.89l11,24.18a10.13,10.13,0,0,1,.46,1.07c.12.33.22.69.32,1.07H121.86c-.09-.34-.19-.63-.28-.89s-.19-.51-.29-.75l-6.55-13.82H93.33L87.85,71.5c-.1.28-.19.57-.29.85a6.73,6.73,0,0,0-.21.86H72.51a9.65,9.65,0,0,1,.32-1.07,10.13,10.13,0,0,1,.46-1.07L84.18,47ZM89.13,36l1.34-3a13.86,13.86,0,0,1,5.4-6.67,16.33,16.33,0,0,1,6.07-2.07l.92-5.9a4.37,4.37,0,0,1-2.51-3.68,4.15,4.15,0,0,1,4.08-4.08,4.08,4.08,0,0,1,4.08,4.08,4.24,4.24,0,0,1-2.35,3.7l.63,5.87a16.08,16.08,0,0,1,6,2.08A14.07,14.07,0,0,1,118.24,33l1.32,2.89Z" style="fill:#ffed00"/><path d="M159.92,73.21a27.6,27.6,0,0,1-11.22-2.1A23.55,23.55,0,0,1,134.43,49.2a23.52,23.52,0,0,1,2.06-9.8,24.23,24.23,0,0,1,5.68-7.88,22.88,22.88,0,0,1,7.56-4.65,28.53,28.53,0,0,1,10.19-1.67h25.92V37.91H159.92a14.78,14.78,0,0,0-5.39.85,12.13,12.13,0,0,0-3.7,2.28,11.66,11.66,0,0,0-2.59,3.69,10.94,10.94,0,0,0-1,4.54,11.11,11.11,0,0,0,.78,4.16,10.77,10.77,0,0,0,2.2,3.44,12.52,12.52,0,0,0,3.91,2.81,13.53,13.53,0,0,0,5.75,1.1h12.29c.61,0,.92-.33.92-1V46.93h12.78V70.15q0,3.06-3,3.06Z" style="fill:#ffed00"/></g></g></svg>