<svg xmlns="http://www.w3.org/2000/svg" viewBox="0 0 210.65 117.71"><title>VAGexperience</title><g id="Capa_2" data-name="Capa 2"><g id="Capa_1-2" data-name="Capa 1"><rect width="210.65" height="89.17" rx="11.34" style="fill:#1d1d1b"/><path d="M20.31,27.33c-.18-.38-.34-.73-.46-1.06s-.22-.69-.32-1.07h15.2a13.91,13.91,0,0,0,.5,1.71L49.57,60.07a2.56,2.56,0,0,0,.89,1.13,2,2,0,0,0,1.17.36,2.08,2.08,0,0,0,1.14-.32,2.47,2.47,0,0,0,.85-1.17l14.2-33.16a8.58,8.58,0,0,0,.57-1.71h15a9.65,9.65,0,0,1-.32,1.07,10,10,0,0,1-.46,1.06L65.41,65.39A15.24,15.24,0,0,1,60,72a15.2,15.2,0,0,1-8.45,2.17q-9.95,0-13.92-8.81Z" style="fill:#fff"/><path d="M124.56,46.89l11,24.18a10.13,10.13,0,0,1,.46,1.07c.12.33.22.69.32,1.07H121.86c-.09-.34-.19-.63-.28-.89s-.19-.51-.29-.75l-6.55-13.82H93.33L87.85,71.5c-.1.28-.19.57-.29.85a6.73,6.73,0,0,0-.21.86H72.51a9.65,9.65,0,0,1,.32-1.07,10.13,10.13,0,0,1,.46-1.07L84.18,47ZM89.13,36l1.34-3a13.86,13.86,0,0,1,5.4-6.67,16.33,16.33,0,0,1,6.07-2.07l.92-5.9a4.37,4.37,0,0,1-2.51-3.68,4.15,4.15,0,0,1,4.08-4.08,4.08,4.08,0,0,1,4.08,4.08,4.24,4.24,0,0,1-2.35,3.7l.63,5.87a16.08,16.08,0,0,1,6,2.08A14.07,14.07,0,0,1,118.24,33l1.32,2.89Z" style="fill:#fff"/><path d="M159.92,73.21a27.6,27.6,0,0,1-11.22-2.1A23.55,23.55,0,0,1,134.43,49.2a23.52,23.52,0,0,1,2.06-9.8,24.23,24.23,0,0,1,5.68-7.88,22.88,22.88,0,0,1,7.56-4.65,28.53,28.53,0,0,1,10.19-1.67h25.92V37.91H159.92a14.78,14.78,0,0,0-5.39.85,12.13,12.13,0,0,0-3.7,2.28,11.66,11.66,0,0,0-2.59,3.69,10.94,10.94,0,0,0-1,4.54,11.11,11.11,0,0,0,.78,4.16,10.77,10.77,0,0,0,2.2,3.44,12.52,12.52,0,0,0,3.91,2.81,13.53,13.53,0,0,0,5.75,1.1h12.29c.61,0,.92-.33.92-1V46.93h12.78V70.15q0,3.06-3,3.06Z" style="fill:#fff"/><path d="M22.8,99.5v4.73H9.23c-.28,0-.42.15-.42.44v2H22.72v3.43H8.81v2.16q0,.48.42.48H22.8v4.56H6.54A2.21,2.21,0,0,1,4,114.86v-13c0-1.6.85-2.4,2.54-2.4Z" style="fill:#1d1d1b"/><path d="M48.89,99.5a3.59,3.59,0,0,1-.52.58l-8,7.73,9,9a2.91,2.91,0,0,1,.24.27l.21.28H43a3.62,3.62,0,0,0-.42-.53l-5.68-5.91-6,5.91-.25.27-.22.26H24.17a3.4,3.4,0,0,1,.21-.28l.26-.27,9.21-9-8-7.73a2.09,2.09,0,0,1-.5-.58H32a3.36,3.36,0,0,0,.45.58l4.72,4.81,5-4.81a1.28,1.28,0,0,0,.28-.29l.22-.29Z" style="fill:#1d1d1b"/><path d="M64.62,99.5a8.4,8.4,0,0,1,3.18.52A6.41,6.41,0,0,1,70,101.43a6.84,6.84,0,0,1,1.45,2.16,6.59,6.59,0,0,1,.53,2.59,6.52,6.52,0,0,1-.41,2.28,7,7,0,0,1-1.15,2,6.59,6.59,0,0,1-2.32,1.76,8.28,8.28,0,0,1-3.46.65H56.41v4.48H51.64V100.61c0-.74.38-1.11,1.16-1.11Zm.11,9a3.13,3.13,0,0,0,1.28-.22,2.09,2.09,0,0,0,1.2-1.89,2.11,2.11,0,0,0-.45-1.34,2,2,0,0,0-.78-.58,3.2,3.2,0,0,0-1.25-.21h-8c-.23,0-.35.12-.35.37v3.87Z" style="fill:#1d1d1b"/><path d="M92.62,99.5v4.73H79.05c-.28,0-.42.15-.42.44v2H92.54v3.43H78.63v2.16q0,.48.42.48H92.62v4.56H76.36a2.2,2.2,0,0,1-2.5-2.48v-13c0-1.6.84-2.4,2.53-2.4Z" style="fill:#1d1d1b"/><path d="M99.64,117.34H94.86V100.61c0-.74.4-1.11,1.19-1.11h12.67a7.18,7.18,0,0,1,2.74.46,5.51,5.51,0,0,1,1.82,1.23,5.08,5.08,0,0,1,1,1.6,4.76,4.76,0,0,1,.39,1.91,5.86,5.86,0,0,1-.37,2A3.71,3.71,0,0,1,113,108.4a3.27,3.27,0,0,1,1.3,1.34,5.44,5.44,0,0,1,.41,2.35v3.56c0,.39,0,.71,0,.95s0,.49.07.74H110a9.26,9.26,0,0,1-.08-1.19v-3.56a1.47,1.47,0,0,0-.45-1.21A2.36,2.36,0,0,0,108,111H99.64Zm8.44-10.4a1.91,1.91,0,0,0,.82-.15,1.6,1.6,0,0,0,.53-.43,1.42,1.42,0,0,0,.34-.92,1.33,1.33,0,0,0-.4-1,1.62,1.62,0,0,0-1.29-.48h-8a.35.35,0,0,0-.39.4v2.58Z" style="fill:#1d1d1b"/><path d="M121.91,99.5v17.84h-4.8V99.5Z" style="fill:#1d1d1b"/><path d="M143.31,99.5v4.73H129.75a.38.38,0,0,0-.43.44v2h13.91v3.43H129.32v2.16c0,.32.14.48.43.48h13.56v4.56H127.05a2.2,2.2,0,0,1-2.5-2.48v-13c0-1.6.84-2.4,2.53-2.4Z" style="fill:#1d1d1b"/><path d="M167.69,113.88a5,5,0,0,1-.27,1.73,3.5,3.5,0,0,1-.74,1.19,3,3,0,0,1-1.07.69,3.65,3.65,0,0,1-1.27.22,5.5,5.5,0,0,1-2-.33,3.71,3.71,0,0,1-1.49-1.07L151.07,105a.58.58,0,0,0-.42-.24.43.43,0,0,0-.32.14.47.47,0,0,0-.13.36v12.09h-4.7V103.28a5.47,5.47,0,0,1,.3-1.93,3.32,3.32,0,0,1,.86-1.29,3.28,3.28,0,0,1,1.32-.73,5.85,5.85,0,0,1,1.66-.22,5.21,5.21,0,0,1,2.14.39,5.34,5.34,0,0,1,1.72,1.37l8.7,10.43a.52.52,0,0,0,.21.17.61.61,0,0,0,.24,0c.25,0,.37-.16.37-.48V99.5h4.67Z" style="fill:#1d1d1b"/><path d="M188.75,117.34h-9.34a10.28,10.28,0,0,1-4.17-.78,8.72,8.72,0,0,1-5.3-8.14,8.73,8.73,0,0,1,.76-3.64,8.93,8.93,0,0,1,2.11-2.93,8.63,8.63,0,0,1,2.81-1.73,10.68,10.68,0,0,1,3.79-.62h9.34v4.73h-9.34a5.51,5.51,0,0,0-2,.31,4.65,4.65,0,0,0-1.37.85,4.18,4.18,0,0,0-1,1.37,4,4,0,0,0-.36,1.69A4.17,4.17,0,0,0,175,110a4.16,4.16,0,0,0,2.27,2.28,5.4,5.4,0,0,0,2.14.37h9.34Z" style="fill:#1d1d1b"/><path d="M209.73,99.5v4.73H196.16c-.28,0-.42.15-.42.44v2h13.91v3.43H195.74v2.16q0,.48.42.48h13.57v4.56H193.47a2.2,2.2,0,0,1-2.5-2.48v-13c0-1.6.84-2.4,2.53-2.4Z" style="fill:#1d1d1b"/></g></g></svg>