<svg xmlns="http://www.w3.org/2000/svg" viewBox="0 0 88.57 88.57"><title>Favicon</title><g id="Capa_2" data-name="Capa 2"><g id="Capa_1-2" data-name="Capa 1"><rect width="88.57" height="88.57" rx="17.01" style="fill:#000"/><path d="M66.15,47s8,17.5,11.95,26.26a9.8,9.8,0,0,1,.5,1.15A11.34,11.34,0,0,1,79,75.54H63.22c-.11-.36-.21-.68-.31-1s-.21-.56-.31-.81l-7.12-15H32.24l-6,14.93-.31.93a5.9,5.9,0,0,0-.23.92H9.62c.11-.41.22-.8.35-1.16a11.83,11.83,0,0,1,.5-1.15L22.29,47ZM27.67,35.13l1.46-3.24A15.09,15.09,0,0,1,35,24.65a17.84,17.84,0,0,1,6.6-2.25l1-6.4a4.78,4.78,0,0,1-2.73-4,4.52,4.52,0,0,1,4.44-4.43A4.44,4.44,0,0,1,48.72,12a4.6,4.6,0,0,1-2.55,4l.68,6.38a17.47,17.47,0,0,1,6.54,2.26,15.27,15.27,0,0,1,5.9,7.24L60.71,35Z" style="fill:#71BC52"/></g></g></svg>